<!-- Generator: Adobe Illustrator 21.0.2, SVG Export Plug-In  -->
<svg version="1.1"
	 xmlns="http://www.w3.org/2000/svg" xmlns:xlink="http://www.w3.org/1999/xlink" xmlns:a="http://ns.adobe.com/AdobeSVGViewerExtensions/3.0/"
	 x="0px" y="0px" width="382.1px" height="290.2px" viewBox="0 0 382.1 290.2" style="enable-background:new 0 0 382.1 290.2;"
	 xml:space="preserve">
<defs>
</defs>
<path d="M336.8,0H45.4C20.3,0,0,19.5,0,43.6v203.1c0,24,20.3,43.6,45.4,43.6h291.4c25,0,45.4-19.5,45.4-43.6V43.6
	C382.1,19.5,361.8,0,336.8,0z M336.8,251.8H45.4c-3.7,0-6.9-2.4-6.9-5.1V70.4l131.8,111.3c2.7,2.3,6.1,3.5,9.7,3.5l22.3,0
	c3.5,0,7-1.3,9.7-3.5L343.7,70.4v176.3C343.7,249.4,340.4,251.8,336.8,251.8z M191.1,147L62.9,38.5h256.4L191.1,147z"/>
</svg>
