<!-- Generator: Adobe Illustrator 21.0.2, SVG Export Plug-In  -->
<svg version="1.1"
	 xmlns="http://www.w3.org/2000/svg" xmlns:xlink="http://www.w3.org/1999/xlink" xmlns:a="http://ns.adobe.com/AdobeSVGViewerExtensions/3.0/"
	 x="0px" y="0px" width="203.2px" height="30.4px" viewBox="0 0 203.2 30.4" style="enable-background:new 0 0 203.2 30.4;"
	 xml:space="preserve">
<style type="text/css">
	.st0{fill:#EBD296;}
</style>
<defs>
</defs>
<g>
	<path class="st0" d="M25.1,12.4c0,1.8-0.3,3.4-0.9,4.9c-0.6,1.5-1.5,2.8-2.6,3.9c-1.1,1.1-2.5,2-4,2.6c-1.6,0.6-3.2,0.9-5.1,0.9
		c-1.9,0-3.6-0.3-5.1-1c-1.5-0.7-2.8-1.5-3.9-2.6c-1.1-1.1-1.9-2.4-2.5-3.8c-0.6-1.5-0.9-3-0.9-4.5c0-1.5,0.3-3,0.8-4.4
		c0.6-1.4,1.4-2.7,2.4-3.8c1.1-1.1,2.4-2,4-2.7c1.6-0.7,3.4-1,5.4-1c1.8,0,3.4,0.3,4.9,0.8c1.5,0.5,2.8,1.3,3.9,2.3
		c1.1,1,2,2.2,2.6,3.7C24.8,9,25.1,10.6,25.1,12.4z M13.2,23.6c0.9,0,1.8-0.2,2.7-0.6c0.9-0.4,1.7-1,2.4-1.9
		c0.7-0.9,1.3-1.9,1.7-3.3c0.4-1.3,0.7-2.9,0.7-4.8c0-1.6-0.2-3.1-0.6-4.4c-0.4-1.4-1-2.6-1.8-3.6c-0.8-1-1.7-1.8-2.8-2.4
		c-1.1-0.6-2.2-0.9-3.5-0.9c-1.1,0-2.1,0.2-3,0.7C8,3,7.2,3.7,6.5,4.5c-0.7,0.9-1.2,2-1.6,3.3c-0.4,1.3-0.6,2.7-0.6,4.3
		c0,1.6,0.2,3.1,0.6,4.5c0.4,1.4,1,2.6,1.8,3.7c0.8,1,1.7,1.9,2.8,2.4C10.7,23.4,11.9,23.6,13.2,23.6z"/>
	<path class="st0" d="M48.3,6.1L48,6c0.1-1.3-0.1-2.1-0.7-2.6s-1.4-0.7-2.6-0.7l-5.1-0.1l0,13.6v1.4c0,0.7,0,1.4,0,2
		c0,0.7,0,1.2,0.1,1.6c0,0.4,0.1,0.8,0.3,1.1c0.1,0.3,0.3,0.6,0.6,0.8c0.3,0.2,0.7,0.4,1.2,0.5c0.5,0.1,1.1,0.2,1.9,0.3v0.2
		c-0.3,0-0.7,0-1.2-0.1c-0.5,0-1,0-1.5,0c-0.5,0-1,0-1.5,0c-0.5,0-1,0-1.4,0c-0.4,0-0.8,0-1.3,0c-0.5,0-1,0-1.5,0c-0.5,0-1,0-1.5,0
		c-0.5,0-0.9,0-1.2,0V24c0.6-0.1,1.1-0.2,1.6-0.3c0.5-0.1,0.8-0.3,1.1-0.5c0.3-0.2,0.5-0.5,0.7-0.8c0.2-0.3,0.2-0.8,0.3-1.4
		c0-0.4,0-1.1,0-2c0-0.9,0-1.8,0-2.9V8.2c0-0.6,0-1.2,0-1.9c0-0.7,0-1.3,0-1.8V2.6l-5.1,0.1c-0.6,0-1.1,0.1-1.5,0.2
		c-0.4,0.1-0.7,0.3-1,0.5c-0.3,0.2-0.5,0.6-0.8,0.9c-0.2,0.4-0.5,0.8-0.8,1.4l-0.2-0.2c0-0.1,0.1-0.4,0.2-0.9
		c0.1-0.6,0.3-1.2,0.4-1.8C27.6,2,27.8,1.2,28,0.2L28.2,0c0.2,0.3,0.4,0.6,0.7,0.7c0.3,0.2,0.6,0.3,0.9,0.4c0.3,0.1,0.7,0.2,1,0.2
		c0.3,0,0.6,0,0.9,0L38,1.5l7.2-0.2c0.7,0,1.3-0.1,1.8-0.1c0.4-0.1,0.8-0.1,1.1-0.2c0.3-0.1,0.5-0.2,0.6-0.4
		c0.1-0.1,0.2-0.3,0.3-0.5l0.3,0.1L48.3,6.1z"/>
	<path class="st0" d="M62.8,24.1c-0.3,0-0.7,0-1.2-0.1c-0.5,0-1,0-1.5,0c-0.5,0-1,0-1.5,0c-0.5,0-1,0-1.4,0c-0.4,0-0.8,0-1.3,0
		c-0.5,0-1,0-1.5,0c-0.5,0-1,0-1.5,0c-0.5,0-0.9,0-1.2,0V24c0.6-0.1,1.1-0.2,1.6-0.3c0.5-0.1,0.8-0.3,1.1-0.5
		c0.3-0.2,0.5-0.5,0.7-0.8c0.2-0.3,0.2-0.8,0.3-1.4c0-0.4,0-1.1,0-2c0-0.9,0-1.9,0-2.9s0-2,0-3c0-0.9,0-1.7,0-2.2s0-1,0-1.6
		c0-0.6,0-1.2,0-1.8s0-1.2,0-1.7c0-0.5,0-1,0-1.5c0-0.6-0.1-1-0.3-1.4c-0.2-0.3-0.4-0.6-0.7-0.8c-0.3-0.2-0.7-0.4-1.1-0.5
		c-0.5-0.1-1-0.2-1.6-0.3V1.3c0.3,0,0.7,0,1.2,0c0.5,0,1,0,1.5,0.1c0.5,0,1,0.1,1.5,0.1c0.5,0,0.9,0,1.3,0c0.4,0,0.9,0,1.4,0
		c0.5,0,1,0,1.5,0c0.5,0,0.9,0,1.4-0.1c0.4,0,0.8,0,1.1-0.1v0.2c-0.7,0.1-1.2,0.2-1.6,0.3c-0.4,0.1-0.8,0.3-1.1,0.5
		s-0.5,0.5-0.6,0.8C59,3.4,59,3.8,58.9,4.3c0,0.4,0,0.8,0,1.3c0,0.5,0,1.1,0,1.8l0,5.6l0,4.6c0,0.7,0,1.4,0,2c0,0.7,0,1.2,0.1,1.6
		c0,0.4,0.1,0.8,0.3,1.1c0.1,0.3,0.3,0.6,0.6,0.8c0.3,0.2,0.7,0.4,1.2,0.5c0.5,0.1,1.1,0.2,1.9,0.3V24.1z M83.3,28.8
		c1,0,1.9-0.1,2.8-0.3c0.9-0.2,1.7-0.5,2.6-0.9l0.2,0.2c-0.5,0.4-1.1,0.8-1.8,1.2c-0.7,0.3-1.5,0.6-2.3,0.8
		c-0.8,0.2-1.6,0.4-2.3,0.5c-0.8,0.1-1.5,0.2-2.1,0.2c-1.5,0-3-0.3-4.4-0.9c-1.4-0.6-2.7-1.4-4-2.3c-1.3-1-2.5-2.1-3.6-3.4
		c-1.1-1.3-2.2-2.6-3.3-4c-1-1.4-2-2.7-2.9-4.1c-0.9-1.4-1.8-2.6-2.6-3.8c0.2-0.2,0.4-0.5,0.8-0.9c0.4-0.4,0.8-0.8,1.2-1.3
		c0.5-0.5,1-1,1.5-1.5c0.5-0.5,1-1,1.5-1.5c0.5-0.5,0.9-0.9,1.2-1.2c0.4-0.4,0.6-0.6,0.8-0.8c0.2-0.2,0.5-0.5,0.8-0.9
		c0.3-0.3,0.5-0.7,0.6-1C68.1,2.6,68,2.3,67.8,2c-0.2-0.3-0.7-0.4-1.5-0.5V1.3l5.1,0.2L75,1.3v0.3c-0.1,0-0.3,0-0.4,0
		c-0.2,0-0.4,0-0.6,0.1c-0.2,0-0.4,0.1-0.6,0.1c-0.2,0-0.4,0.1-0.5,0.2c-0.5,0.2-1.1,0.5-1.7,0.9c-0.7,0.4-1.4,1-2,1.6
		c-0.2,0.2-0.6,0.6-1.2,1.2c-0.6,0.5-1.2,1.1-1.9,1.7c-0.7,0.6-1.3,1.2-1.9,1.8c-0.6,0.6-1,1-1.3,1.3c0.7,1.1,1.5,2.3,2.4,3.6
		c0.9,1.3,1.9,2.7,2.9,4c1,1.4,2.1,2.7,3.3,4c1.2,1.3,2.4,2.4,3.7,3.4c1.3,1,2.6,1.8,4,2.4C80.4,28.5,81.8,28.8,83.3,28.8z"/>
	<path class="st0" d="M96.5,7.4c0,1.2-0.3,2.2-0.8,3.2c-0.6,1-1.3,1.8-2.2,2.5c-0.9,0.7-1.9,1.2-3,1.5c-1.1,0.3-2.2,0.5-3.3,0.4
		v-0.3c0.8-0.1,1.6-0.3,2.3-0.5c0.7-0.3,1.3-0.7,1.9-1.2c0.5-0.5,0.9-1.1,1.2-1.8c0.3-0.7,0.4-1.5,0.4-2.4c0-0.9-0.1-1.7-0.4-2.5
		c-0.3-0.8-0.7-1.5-1.2-2.1c-0.5-0.6-1.1-1.1-1.9-1.5c-0.7-0.4-1.6-0.6-2.5-0.6c-0.5,0-0.9,0-1.3,0l-0.2,0.4v7.2l0,3.3l0,4.6
		c0,0.7,0,1.4,0,2c0,0.7,0,1.2,0.1,1.6c0,0.4,0.1,0.8,0.3,1.1c0.1,0.3,0.3,0.6,0.6,0.8c0.3,0.2,0.7,0.4,1.2,0.5
		c0.5,0.1,1.1,0.2,1.9,0.3v0.2c-0.3,0-0.7,0-1.2-0.1c-0.5,0-1,0-1.5,0c-0.5,0-1,0-1.5,0c-0.5,0-1,0-1.4,0c-0.4,0-0.8,0-1.3,0
		c-0.5,0-1,0-1.5,0c-0.5,0-1,0-1.5,0c-0.5,0-0.9,0-1.2,0V24c0.6-0.1,1.1-0.2,1.6-0.3c0.5-0.1,0.8-0.3,1.1-0.5
		c0.3-0.2,0.5-0.5,0.7-0.8c0.2-0.3,0.3-0.8,0.3-1.4c0-0.4,0-1.1,0-2c0-0.9,0-1.9,0-2.9s0-2,0-3c0-0.9,0-1.7,0-2.2s0-1,0-1.6
		c0-0.6,0-1.1,0-1.7s0-1.2,0-1.7c0-0.5,0-1,0-1.5c0-0.6-0.1-1-0.3-1.4c-0.1-0.3-0.4-0.6-0.7-0.8c-0.3-0.2-0.7-0.4-1.1-0.5
		s-1-0.2-1.5-0.3V1.3c0.3,0,0.6,0,0.9,0c0.4,0,0.8,0,1.2,0c0.5,0,0.9,0,1.4,0c0.5,0,1,0,1.5,0l4.5-0.1c0.9,0,1.8,0.1,2.8,0.3
		c1,0.2,1.9,0.5,2.7,0.9s1.5,1.1,2,1.9C96.2,5.1,96.5,6.1,96.5,7.4z"/>
	<path class="st0" d="M107.5,24.2c-0.6-0.1-1.3-0.1-1.9-0.2c-0.7,0-1.2,0-1.7,0c-0.4,0-0.8,0-1.3,0c-0.5,0-1,0-1.5,0
		c-0.5,0-1,0-1.5,0c-0.5,0-0.9,0-1.2,0V24c0.6-0.1,1.1-0.2,1.6-0.3c0.5-0.1,0.8-0.3,1.1-0.5c0.3-0.2,0.5-0.5,0.7-0.8
		c0.2-0.3,0.3-0.8,0.3-1.4c0-0.4,0-1.1,0-2c0-0.9,0-1.9,0-2.9s0-2,0-3c0-0.9,0-1.7,0-2.2s0-1,0-1.6c0-0.6,0-1.2,0-1.8s0-1.2,0-1.7
		c0-0.5,0-1,0-1.5c0-0.6-0.1-1-0.3-1.4c-0.2-0.3-0.4-0.6-0.7-0.8c-0.3-0.2-0.7-0.4-1.1-0.5c-0.5-0.1-1-0.2-1.6-0.3V1.3
		c0.3,0,0.7,0,1.2,0c0.5,0,1,0,1.5,0.1c0.5,0,1,0.1,1.5,0.1c0.5,0,0.9,0,1.3,0c0.4,0,0.9,0,1.4,0c0.5,0,1,0,1.5,0
		c0.5,0,0.9,0,1.4-0.1c0.4,0,0.8,0,1.1-0.1v0.2c-0.7,0.1-1.2,0.2-1.6,0.3c-0.4,0.1-0.8,0.3-1.1,0.5c-0.3,0.2-0.5,0.5-0.6,0.8
		c-0.1,0.3-0.2,0.8-0.2,1.3c0,0.4,0,0.8,0,1.3c0,0.5,0,1.1,0,1.8l0,4.1c0.5,0,1,0,1.5-0.1c0.5,0,1-0.1,1.5-0.1c1-0.1,2,0,3,0.3
		c1,0.2,1.9,0.6,2.7,1.1c0.8,0.5,1.5,1.2,2,2c0.5,0.8,0.7,1.8,0.7,2.9c0,1.2-0.3,2.3-0.8,3.2c-0.5,0.9-1.2,1.7-2,2.2
		c-0.9,0.6-1.9,1-3,1.2C110,24.3,108.8,24.3,107.5,24.2z M108.4,23.8c0.8,0,1.5-0.1,2.1-0.5c0.6-0.3,1.1-0.8,1.6-1.3
		c0.4-0.6,0.7-1.2,1-1.9c0.2-0.7,0.3-1.5,0.3-2.3c0-0.8-0.1-1.6-0.4-2.3c-0.3-0.7-0.7-1.3-1.2-1.8c-0.5-0.5-1.2-0.9-1.9-1.2
		c-0.7-0.3-1.6-0.4-2.5-0.4h-2v1l0,4.6c0,0.7,0,1.4,0,2c0,0.7,0,1.2,0.1,1.6c0.1,0.8,0.3,1.4,0.7,1.8
		C106.6,23.5,107.3,23.8,108.4,23.8z M128.3,24.1c-0.3,0-0.7,0-1.2-0.1c-0.5,0-1,0-1.5,0c-0.5,0-1,0-1.5,0c-0.5,0-1,0-1.4,0
		c-0.4,0-0.8,0-1.3,0c-0.5,0-1,0-1.5,0c-0.5,0-1,0-1.5,0c-0.5,0-0.9,0-1.2,0V24c0.6-0.1,1.1-0.2,1.6-0.3c0.5-0.1,0.8-0.3,1.1-0.5
		c0.3-0.2,0.5-0.5,0.7-0.8c0.2-0.3,0.3-0.8,0.3-1.4c0-0.4,0-1.1,0-2c0-0.9,0-1.9,0-2.9s0-2,0-3c0-0.9,0-1.7,0-2.2s0-1,0-1.6
		c0-0.6,0-1.2,0-1.8s0-1.2,0-1.7s0-1,0-1.5c0-0.6-0.1-1-0.3-1.4c-0.2-0.3-0.4-0.6-0.7-0.8c-0.3-0.2-0.7-0.4-1.1-0.5
		c-0.5-0.1-1-0.2-1.6-0.3V1.3c0.3,0,0.7,0,1.2,0c0.5,0,1,0,1.5,0.1c0.5,0,1,0.1,1.5,0.1c0.5,0,0.9,0,1.3,0c0.4,0,0.9,0,1.4,0
		c0.5,0,1,0,1.5,0c0.5,0,0.9,0,1.4-0.1c0.4,0,0.8,0,1.1-0.1v0.2c-0.7,0.1-1.2,0.2-1.6,0.3c-0.4,0.1-0.8,0.3-1.1,0.5
		c-0.3,0.2-0.5,0.5-0.6,0.8c-0.1,0.3-0.2,0.8-0.2,1.3c0,0.4,0,0.8,0,1.3c0,0.5,0,1.1,0,1.8l0,5.6l0,4.6c0,0.7,0,1.4,0,2
		c0,0.7,0,1.2,0.1,1.6c0,0.4,0.1,0.8,0.3,1.1c0.1,0.3,0.3,0.6,0.6,0.8c0.3,0.2,0.7,0.4,1.2,0.5c0.5,0.1,1.1,0.2,1.9,0.3V24.1z"/>
	<path class="st0" d="M151.7,6.1L151.5,6c0.1-1.3-0.1-2.1-0.7-2.6s-1.4-0.7-2.6-0.7l-5.1-0.1l0,13.6v1.4c0,0.7,0,1.4,0,2
		c0,0.7,0,1.2,0.1,1.6c0,0.4,0.1,0.8,0.3,1.1c0.1,0.3,0.3,0.6,0.6,0.8c0.3,0.2,0.7,0.4,1.2,0.5c0.5,0.1,1.1,0.2,1.9,0.3v0.2
		c-0.3,0-0.7,0-1.2-0.1c-0.5,0-1,0-1.5,0c-0.5,0-1,0-1.5,0c-0.5,0-1,0-1.4,0c-0.4,0-0.8,0-1.3,0c-0.5,0-1,0-1.5,0c-0.5,0-1,0-1.5,0
		c-0.5,0-0.9,0-1.2,0V24c0.6-0.1,1.1-0.2,1.6-0.3c0.5-0.1,0.8-0.3,1.1-0.5c0.3-0.2,0.5-0.5,0.7-0.8c0.2-0.3,0.2-0.8,0.3-1.4
		c0-0.4,0-1.1,0-2c0-0.9,0-1.8,0-2.9V8.2c0-0.6,0-1.2,0-1.9c0-0.7,0-1.3,0-1.8V2.6l-5.1,0.1c-0.6,0-1.1,0.1-1.5,0.2
		c-0.4,0.1-0.7,0.3-1,0.5c-0.3,0.2-0.5,0.6-0.8,0.9c-0.2,0.4-0.5,0.8-0.8,1.4l-0.2-0.2c0-0.1,0.1-0.4,0.2-0.9
		c0.1-0.6,0.3-1.2,0.4-1.8c0.2-0.8,0.4-1.6,0.7-2.6l0.2-0.2c0.2,0.3,0.4,0.6,0.7,0.7c0.3,0.2,0.6,0.3,0.9,0.4c0.3,0.1,0.7,0.2,1,0.2
		c0.3,0,0.6,0,0.9,0l6.3,0.2l7.2-0.2c0.7,0,1.3-0.1,1.8-0.1c0.4-0.1,0.8-0.1,1.1-0.2c0.3-0.1,0.5-0.2,0.6-0.4
		c0.1-0.1,0.2-0.3,0.3-0.5l0.3,0.1L151.7,6.1z"/>
	<path class="st0" d="M182,24.1c-0.5,0-1,0-1.5,0c-0.5,0-1,0-1.5,0c-0.5,0-1,0-1.4,0c-0.4,0-0.8,0-1.3,0c-0.5,0-1,0-1.5,0
		c-0.5,0-1,0-1.5,0c-0.5,0-0.9,0-1.2,0V24c0.6-0.1,1.1-0.2,1.6-0.3c0.5-0.1,0.8-0.3,1.1-0.5c0.3-0.2,0.5-0.5,0.7-0.8
		c0.2-0.3,0.3-0.8,0.3-1.4c0-0.4,0-1.1,0-2c0-0.9,0-1.9,0-2.9s0-2,0-3c0-0.9,0-1.7,0-2.2V7.1c-2.7,2.5-5.2,5-7.4,7.3
		c-2.2,2.3-4.3,4.4-6.4,6.3c0,0.1,0,0.2,0,0.3s0,0.1,0,0.1c0,0,0,0.1,0,0.1c0,0,0,0.1,0,0.2c0,0.4,0.1,0.8,0.2,1.1
		c0.1,0.3,0.3,0.6,0.6,0.8c0.3,0.2,0.7,0.4,1.2,0.5c0.5,0.1,1.1,0.2,1.9,0.3v0.2c-0.3,0-0.7,0-1.2-0.1c-0.5,0-1,0-1.5,0
		c-0.5,0-1,0-1.5,0c-0.5,0-1,0-1.4,0c-0.4,0-0.8,0-1.3,0c-0.5,0-1,0-1.5,0c-0.5,0-1,0-1.5,0c-0.5,0-0.9,0-1.2,0V24
		c0.6-0.1,1.1-0.2,1.6-0.3s0.8-0.3,1.1-0.5c0.3-0.2,0.5-0.5,0.7-0.8c0.2-0.3,0.3-0.8,0.3-1.4c0-0.4,0-1.1,0-2c0-0.9,0-1.9,0-2.9
		s0-2,0-3c0-0.9,0-1.7,0-2.2s0-1,0-1.6c0-0.6,0-1.2,0-1.8s0-1.2,0-1.7c0-0.5,0-1,0-1.5c0-0.6-0.1-1-0.3-1.4
		c-0.2-0.3-0.4-0.6-0.7-0.8c-0.3-0.2-0.7-0.4-1.1-0.5c-0.5-0.1-1-0.2-1.6-0.3V1.3c0.3,0,0.7,0,1.2,0c0.5,0,1,0,1.5,0.1
		c0.5,0,1,0.1,1.5,0.1c0.5,0,0.9,0,1.3,0c0.4,0,0.9,0,1.4,0c0.5,0,1,0,1.5,0c0.5,0,0.9,0,1.4-0.1c0.4,0,0.8,0,1.1-0.1v0.2
		c-0.7,0.1-1.2,0.2-1.6,0.3c-0.4,0.1-0.8,0.3-1.1,0.5s-0.5,0.5-0.6,0.8c-0.1,0.3-0.2,0.8-0.2,1.3c0,0.4,0,0.8,0,1.3
		c0,0.5,0,1.1,0,1.8l0,5.6v5.5c2.3-2.2,4.6-4.5,6.9-6.8c2.3-2.3,4.5-4.6,6.8-6.9V4.4c0-0.6-0.1-1-0.3-1.4c-0.2-0.3-0.4-0.6-0.7-0.8
		c-0.3-0.2-0.7-0.4-1.1-0.5c-0.5-0.1-1-0.2-1.6-0.3V1.3c0.3,0,0.7,0,1.2,0c0.5,0,1,0,1.5,0.1c0.5,0,1,0.1,1.5,0.1c0.5,0,0.9,0,1.3,0
		c0.4,0,0.9,0,1.4,0c0.5,0,1,0,1.5,0c0.5,0,0.9,0,1.4-0.1c0.4,0,0.8,0,1.1-0.1v0.2c-0.7,0.1-1.2,0.2-1.6,0.3
		c-0.4,0.1-0.8,0.3-1.1,0.5s-0.5,0.5-0.6,0.8c-0.1,0.3-0.2,0.8-0.2,1.3c0,0.4,0,0.8,0,1.3c0,0.5,0,1.1,0,1.8l0,5.6l0,4.6
		c0,0.7,0,1.4,0,2c0,0.7,0,1.2,0.1,1.6c0,0.4,0.1,0.8,0.3,1.1c0.1,0.3,0.3,0.6,0.6,0.8c0.3,0.2,0.7,0.4,1.2,0.5
		c0.5,0.1,1.1,0.2,1.9,0.3v0.2C182.9,24.1,182.5,24.1,182,24.1z"/>
	<path class="st0" d="M202.1,23.3c-0.1,0.3-0.2,0.5-0.3,0.6c-0.1,0.1-0.3,0.2-0.6,0.2l-9.5-0.2l-5.8,0.2v-0.3
		c0.6-0.1,1.1-0.2,1.5-0.3c0.4-0.1,0.8-0.3,1.1-0.5c0.3-0.2,0.5-0.5,0.6-0.8c0.1-0.3,0.2-0.8,0.3-1.4c0-0.4,0-1.1,0-2
		c0-0.9,0-1.9,0-2.9c0-1,0-2,0-2.9c0-0.9,0-1.7,0-2.2s0-1,0-1.6c0-0.6,0-1.2,0-1.7c0-0.6,0-1.1,0-1.7c0-0.5,0-1,0-1.5
		c0-0.6-0.1-1-0.3-1.4c-0.1-0.3-0.4-0.6-0.6-0.8c-0.3-0.2-0.6-0.4-1.1-0.5c-0.4-0.1-1-0.2-1.5-0.3V1.3c0.5,0,1,0.1,1.7,0.1
		c0.7,0,1.4,0,2.1,0.1c0.7,0,1.4,0,2.1,0c0.7,0,1.3,0,1.7,0l4.7,0c0.5,0,1,0,1.4,0c0.4,0,0.7,0,1-0.1c0.3-0.1,0.5-0.1,0.7-0.3
		c0.2-0.1,0.4-0.3,0.5-0.6l0.2,0.2c-0.1,0.5-0.2,1-0.2,1.5c0,0.5-0.1,0.9-0.1,1.1c0,0.2,0,0.5-0.1,0.8c0,0.3,0,0.6,0,0.9
		c0,0.3,0,0.6,0,0.8c0,0.3,0,0.5,0,0.6h-0.3c-0.1-1.2-0.5-2.1-1.1-2.7c-0.6-0.7-1.5-1-2.8-1l-1.6,0h-2.8v9c0.2,0,0.6,0,1.2,0
		c0.6,0,1.2,0,1.8,0c0.7,0,1.5,0,2.4,0c0.4,0,0.8,0,1-0.1c0.3-0.1,0.5-0.2,0.6-0.4c0.2-0.2,0.3-0.3,0.4-0.6c0.1-0.2,0.2-0.5,0.3-0.8
		c0,0,0.1,0,0.1,0.1l0.1,0.1c0,0.2-0.1,0.4-0.1,0.7c0,0.3-0.1,0.5-0.1,0.8c0,0.3-0.1,0.5-0.1,0.8c0,0.2,0,0.4,0,0.6
		c0,0.2,0,0.5,0,0.8c0,0.3,0,0.6,0,0.8c0,0.3,0,0.5,0,0.8c0,0.2,0,0.4,0,0.5l-0.3,0c0-0.3-0.1-0.6-0.1-0.9c-0.1-0.3-0.2-0.6-0.3-0.9
		c-0.2-0.3-0.4-0.5-0.7-0.7c-0.3-0.2-0.7-0.3-1.2-0.3l-5.1-0.1v2.7l0,4.3c0,0.6,0.1,1.1,0.2,1.5c0.1,0.4,0.3,0.7,0.6,1
		c0.3,0.3,0.6,0.5,1.1,0.6c0.5,0.1,1.1,0.2,1.8,0.1c0.3,0,0.5,0,0.7,0c0.2,0,0.3,0,0.5,0c0.1,0,0.3,0,0.5,0c0.2,0,0.4,0,0.6-0.1
		c0.5-0.1,0.9-0.2,1.3-0.3c0.4-0.1,0.7-0.4,1.1-0.6c0.3-0.3,0.6-0.7,0.9-1.2c0.3-0.5,0.6-1.1,0.9-1.9l0.3,0.1L202.1,23.3z"/>
</g>
</svg>
